<?xml version="1.0" encoding="UTF-8"?>
<!--Generator: Apple Native CoreSVG 232.5-->
<!DOCTYPE svg
PUBLIC "-//W3C//DTD SVG 1.1//EN"
       "http://www.w3.org/Graphics/SVG/1.1/DTD/svg11.dtd">
<svg version="1.1" xmlns="http://www.w3.org/2000/svg" xmlns:xlink="http://www.w3.org/1999/xlink" width="30.249" height="29.8975">
 <g>
  <rect height="29.8975" opacity="0" width="30.249" x="0" y="0"/>
  <path d="M14.9414 29.8828C23.1152 29.8828 29.8828 23.1152 29.8828 14.9414C29.8828 6.78223 23.1006 0 14.9268 0C6.76758 0 0 6.78223 0 14.9414C0 23.1152 6.78223 29.8828 14.9414 29.8828Z" fill="#32d74b" fill-opacity="0.25"/>
  <path d="M10.166 21.7822C9.62402 21.7822 9.27246 21.4453 9.27246 20.8887C9.27246 20.3906 9.52148 20.083 10.0635 19.9219C11.1914 19.5996 12.1729 18.5449 12.1729 16.9336C12.1729 16.4502 12.085 15.9521 11.9531 15.4248L10.166 15.4248C9.68262 15.4248 9.31641 15.1025 9.31641 14.6191C9.31641 14.1211 9.68262 13.7988 10.166 13.7988L11.5576 13.7988C11.4111 13.2129 11.3086 12.6123 11.3086 12.0117C11.3086 9.15527 13.2129 7.35352 16.3184 7.35352C17.2559 7.35352 18.1055 7.4707 18.8086 7.73438C19.3799 7.9541 19.5703 8.27637 19.5703 8.70117C19.5703 9.16992 19.3213 9.49219 18.75 9.49219C18.3252 9.49219 17.7246 9.14062 16.4355 9.14062C14.458 9.14062 13.2861 10.2539 13.2861 11.8799C13.2861 12.6123 13.418 13.2275 13.5498 13.7988L17.71 13.7988C18.1934 13.7988 18.5449 14.1211 18.5449 14.6191C18.5449 15.1025 18.1934 15.4248 17.71 15.4248L13.9453 15.4248C14.0479 15.8643 14.1064 16.333 14.1064 16.8604C14.1064 18.1494 13.5791 19.3506 12.8027 20.0098L19.3506 20.0098C19.8926 20.0098 20.2734 20.3613 20.2734 20.9033C20.2734 21.4453 19.8926 21.7822 19.3506 21.7822Z" fill="#32d74b"/>
 </g>
</svg>
