<?xml version="1.0" encoding="UTF-8"?>
<!--Generator: Apple Native CoreSVG 232.5-->
<!DOCTYPE svg
PUBLIC "-//W3C//DTD SVG 1.1//EN"
       "http://www.w3.org/Graphics/SVG/1.1/DTD/svg11.dtd">
<svg version="1.1" xmlns="http://www.w3.org/2000/svg" xmlns:xlink="http://www.w3.org/1999/xlink" width="31.311" height="30.9375">
 <g>
  <rect height="30.9375" opacity="0" width="31.311" x="0" y="0"/>
  <path d="M15.4688 30.9375C23.9648 30.9375 30.9448 23.9648 30.9448 15.4688C30.9448 6.97998 23.9575 0 15.4614 0C6.97998 0 0 6.97998 0 15.4688C0 23.9648 6.9873 30.9375 15.4688 30.9375Z" fill="#ffffff" fill-opacity="0.25"/>
  <path d="M10.9863 22.0532C10.2173 22.0532 9.68994 21.5845 9.68994 20.8374C9.68994 20.1636 10.0854 19.8193 10.686 19.4312C11.4917 19.0503 12.2241 18.1641 12.2241 16.8677C12.2241 16.604 12.1802 16.3037 12.1069 16.0181L10.5835 16.0181C9.99756 16.0181 9.60205 15.6299 9.60205 15.0952C9.60205 14.5386 9.99756 14.1724 10.5835 14.1724L11.7188 14.1724C11.5796 13.623 11.4844 13.0737 11.4844 12.5098C11.4844 9.86572 13.4399 8.07129 16.7725 8.07129C18.0542 8.07129 19.0063 8.23242 19.6802 8.58398C20.2148 8.85498 20.4272 9.24316 20.4272 9.74854C20.4272 10.4224 20.0024 10.8032 19.314 10.8032C18.7134 10.8032 18.2812 10.5615 17.1606 10.5615C15.4248 10.5615 14.48 11.4331 14.48 12.7441C14.48 13.2788 14.5752 13.7329 14.6704 14.1724L18.3472 14.1724C18.9331 14.1724 19.3213 14.5386 19.3213 15.0952C19.3213 15.6299 18.9331 16.0181 18.3472 16.0181L15.0586 16.0181C15.1245 16.3037 15.1611 16.6187 15.1611 16.9922C15.1611 17.981 14.751 18.8965 14.0625 19.5117L19.4751 19.5117C20.2515 19.5117 20.7935 20.0098 20.7935 20.7861C20.7935 21.5625 20.2515 22.0532 19.4751 22.0532Z" fill="#ffffff"/>
 </g>
</svg>
