<?xml version="1.0" encoding="UTF-8"?>
<!--Generator: Apple Native CoreSVG 232.5-->
<!DOCTYPE svg
PUBLIC "-//W3C//DTD SVG 1.1//EN"
       "http://www.w3.org/Graphics/SVG/1.1/DTD/svg11.dtd">
<svg version="1.1" xmlns="http://www.w3.org/2000/svg" xmlns:xlink="http://www.w3.org/1999/xlink" width="16.04" height="18.7012">
 <g>
  <rect height="18.7012" opacity="0" width="16.04" x="0" y="0"/>
  <path d="M7.83691 18.7012C8.68164 18.7012 9.24805 18.1104 9.24805 17.2314L9.24805 6.39648L9.09668 2.72949L8.28613 3.27148L11.123 6.54297L13.3252 8.73047C13.5791 8.98926 13.9111 9.16992 14.3359 9.16992C15.1025 9.16992 15.6787 8.6084 15.6787 7.80762C15.6787 7.43164 15.5322 7.08496 15.2393 6.79199L8.88184 0.424805C8.61816 0.15625 8.22266 0 7.83691 0C7.45117 0 7.05078 0.15625 6.79199 0.424805L0.439453 6.79199C0.151367 7.08496 0 7.43164 0 7.80762C0 8.6084 0.576172 9.16992 1.34277 9.16992C1.76758 9.16992 2.09961 8.98926 2.35352 8.73047L4.5459 6.54297L7.38281 3.27148L6.57227 2.72949L6.4209 6.39648L6.4209 17.2314C6.4209 18.1104 6.99219 18.7012 7.83691 18.7012Z" fill="#32d74b"/>
 </g>
</svg>
